<?xml version="1.0" encoding="UTF-8" standalone="no"?>
<!-- Created with Inkscape (http://www.inkscape.org/) -->
<svg
   xmlns:dc="http://purl.org/dc/elements/1.1/"
   xmlns:cc="http://creativecommons.org/ns#"
   xmlns:rdf="http://www.w3.org/1999/02/22-rdf-syntax-ns#"
   xmlns:svg="http://www.w3.org/2000/svg"
   xmlns="http://www.w3.org/2000/svg"
   xmlns:sodipodi="http://sodipodi.sourceforge.net/DTD/sodipodi-0.dtd"
   xmlns:inkscape="http://www.inkscape.org/namespaces/inkscape"
   version="1.0"
   width="100"
   height="120"
   id="svg2"
   sodipodi:version="0.32"
   inkscape:version="0.46"
   sodipodi:docname="menu.svg"
   inkscape:output_extension="org.inkscape.output.svg.inkscape">
  <metadata
     id="metadata7">
    <rdf:RDF>
      <cc:Work
         rdf:about="">
        <dc:format>image/svg+xml</dc:format>
        <dc:type
           rdf:resource="http://purl.org/dc/dcmitype/StillImage" />
      </cc:Work>
    </rdf:RDF>
  </metadata>
  <sodipodi:namedview
     inkscape:window-height="900"
     inkscape:window-width="1280"
     inkscape:pageshadow="2"
     inkscape:pageopacity="0.0"
     guidetolerance="10.0"
     gridtolerance="10.0"
     objecttolerance="10.0"
     borderopacity="1.0"
     bordercolor="#666666"
     pagecolor="#ffffff"
     id="base"
     showgrid="false"
     inkscape:zoom="4.15"
     inkscape:cx="9.0413829"
     inkscape:cy="57.228916"
     inkscape:window-x="0"
     inkscape:window-y="25"
     inkscape:current-layer="svg2" />
  <defs
     id="defs4">
    <inkscape:perspective
       sodipodi:type="inkscape:persp3d"
       inkscape:vp_x="0 : 60 : 1"
       inkscape:vp_y="0 : 1000 : 0"
       inkscape:vp_z="100 : 60 : 1"
       inkscape:persp3d-origin="50 : 40 : 1"
       id="perspective9" />
  </defs>
  <path
     d="M 6.5000001,0.5 C 3.1760001,0.5 0.50000006,3.1760001 0.50000006,6.5 L 0.50000006,93.5 C 0.50000006,96.824 3.1760001,99.5 6.5000001,99.5 L 40,99.5 L 50,110.5 L 60,99.5 L 93.5,99.5 C 96.824,99.5 99.5,96.824 99.5,93.5 L 99.5,6.5 C 99.5,3.176 96.824004,0.5 93.5,0.5 L 6.5000001,0.5 L 6.5000001,0.5 z"
     id="path3233"
     style="opacity:0.85;fill:#000000;fill-opacity:1;fill-rule:nonzero;stroke:#000000;stroke-width:1;stroke-linecap:butt;stroke-linejoin:miter;marker:none;stroke-miterlimit:4;stroke-dasharray:none;stroke-dashoffset:0;stroke-opacity:1;visibility:visible;display:inline;overflow:visible;enable-background:accumulate" />
  <path
     d="M 6.5000001,0.5 C 3.1760001,0.5 0.50000006,3.1760001 0.50000006,6.5 L 0.50000006,93.5 C 0.50000006,96.824 3.1760001,99.5 6.5000001,99.5 L 40,99.5 L 50,110.5 L 60,99.5 L 93.5,99.5 C 96.824,99.5 99.5,96.824 99.5,93.5 L 99.5,6.5 C 99.5,3.176 96.824004,0.5 93.5,0.5 L 6.5000001,0.5 L 6.5000001,0.5 z"
     id="path3152"
     style="opacity:0;fill:none;fill-opacity:0.86274510000000004;fill-rule:nonzero;stroke:#000000;stroke-width:1.00000011999999994;stroke-linecap:square;stroke-linejoin:miter;marker:none;stroke-miterlimit:4;stroke-dasharray:none;stroke-dashoffset:0;stroke-opacity:1;visibility:visible;display:inline;overflow:visible;enable-background:accumulate" />
</svg>
